<svg xmlns="http://www.w3.org/2000/svg" version="1.1" xmlns:xlink="http://www.w3.org/1999/xlink" xmlns:svgjs="http://svgjs.dev/svgjs" width="1440" height="560" preserveAspectRatio="none" viewBox="0 0 1440 560"><g mask="url(&quot;#SvgjsMask1057&quot;)" fill="none"><circle r="46.666666666666664" cx="796.78" cy="533.25" fill="rgba(231, 198, 7, 1)"></circle><path d="M1588.1000000000001 261.9 L1502.25 362.15999999999997L1497.7611131235108 264.6161131235106z" stroke="rgba(199, 42, 24, 1)" stroke-width="1.59" stroke-dasharray="2, 2"></path><rect width="143.76" height="143.76" clip-path="url(&quot;#SvgjsClipPath1058&quot;)" x="349.28" y="356.35" fill="url(&quot;#SvgjsPattern1059&quot;)" transform="rotate(57.44, 421.16, 428.23)"></rect><path d="M542.7 707.3100000000001 L680.31 656.6200000000001L516.6353526445891 587.0953526445893z" fill="rgba(231, 198, 7, 1)"></path><rect width="276" height="276" clip-path="url(&quot;#SvgjsClipPath1060&quot;)" x="747.81" y="365.28" fill="url(&quot;#SvgjsPattern1061&quot;)" transform="rotate(304.97, 885.81, 503.28)"></rect><rect width="264" height="264" clip-path="url(&quot;#SvgjsClipPath1062&quot;)" x="1265.17" y="275.75" fill="url(&quot;#SvgjsPattern1063&quot;)" transform="rotate(233.19, 1397.17, 407.75)"></rect><path d="M856.5 411.6a5.6 5.6 0 1 0-2.33 10.96 5.6 5.6 0 1 0 2.33-10.96zM853.17 427.25a5.6 5.6 0 1 0-2.32 10.96 5.6 5.6 0 1 0 2.32-10.96zM849.85 442.9a5.6 5.6 0 1 0-2.33 10.96 5.6 5.6 0 1 0 2.33-10.96zM846.53 458.55a5.6 5.6 0 1 0-2.33 10.96 5.6 5.6 0 1 0 2.33-10.96zM847.49 376.98a5.6 5.6 0 1 0-2.32 10.95 5.6 5.6 0 1 0 2.32-10.95zM844.17 392.63a5.6 5.6 0 1 0-2.33 10.95 5.6 5.6 0 1 0 2.33-10.95zM840.85 408.28a5.6 5.6 0 1 0-2.33 10.95 5.6 5.6 0 1 0 2.33-10.95zM837.52 423.93a5.6 5.6 0 1 0-2.32 10.95 5.6 5.6 0 1 0 2.32-10.95z" stroke="rgba(16, 3, 224, 1)" stroke-width="1" stroke-dasharray="3, 2"></path><circle r="80.9671607187921" cx="1379.61" cy="274.95" stroke="rgba(16, 3, 224, 1)" stroke-width="2.74" stroke-dasharray="3, 3"></circle><path d="M903.88 231.28 L875.15 176.01999999999998L858.7945181590451 234.37048184095482z" stroke="rgba(199, 42, 24, 1)" stroke-width="1" stroke-dasharray="2, 2"></path><path d="M882.51 247.59a5.6 5.6 0 1 0-3.31 10.7 5.6 5.6 0 1 0 3.31-10.7zM877.78 262.88a5.6 5.6 0 1 0-3.32 10.7 5.6 5.6 0 1 0 3.32-10.7zM873.04 278.16a5.6 5.6 0 1 0-3.31 10.7 5.6 5.6 0 1 0 3.31-10.7zM868.31 293.45a5.6 5.6 0 1 0-3.31 10.69 5.6 5.6 0 1 0 3.31-10.69zM876.7 212.29a5.6 5.6 0 1 0-3.32 10.7 5.6 5.6 0 1 0 3.32-10.7zM871.96 227.58a5.6 5.6 0 1 0-3.31 10.7 5.6 5.6 0 1 0 3.31-10.7zM867.23 242.86a5.6 5.6 0 1 0-3.32 10.7 5.6 5.6 0 1 0 3.32-10.7zM862.49 258.14a5.6 5.6 0 1 0-3.31 10.7 5.6 5.6 0 1 0 3.31-10.7z" stroke="rgba(16, 3, 224, 1)" stroke-width="2.78" stroke-dasharray="3, 3"></path><path d="M285.19 298.45a5.6 5.6 0 1 0 9.62 5.74 5.6 5.6 0 1 0-9.62-5.74zM298.93 306.65a5.6 5.6 0 1 0 9.62 5.74 5.6 5.6 0 1 0-9.62-5.74zM312.67 314.85a5.6 5.6 0 1 0 9.62 5.74 5.6 5.6 0 1 0-9.62-5.74zM326.41 323.05a5.6 5.6 0 1 0 9.62 5.74 5.6 5.6 0 1 0-9.62-5.74zM249.51 295.79a5.6 5.6 0 1 0 9.62 5.74 5.6 5.6 0 1 0-9.62-5.74zM263.25 303.99a5.6 5.6 0 1 0 9.62 5.74 5.6 5.6 0 1 0-9.62-5.74zM276.99 312.19a5.6 5.6 0 1 0 9.62 5.74 5.6 5.6 0 1 0-9.62-5.74zM290.73 320.39a5.6 5.6 0 1 0 9.62 5.74 5.6 5.6 0 1 0-9.62-5.74z" stroke="rgba(16, 3, 224, 1)" stroke-width="1" stroke-dasharray="4, 4"></path><circle r="46.666666666666664" cx="1205.94" cy="76.38" fill="rgba(16, 3, 224, 1)"></circle></g><defs><mask id="SvgjsMask1057"><rect width="1440" height="560" fill="#ffffff"></rect></mask><pattern x="0" y="0" width="143.76" height="11.98" patternUnits="userSpaceOnUse" id="SvgjsPattern1059"><rect width="143.76" height="5.99" x="0" y="0" fill="rgba(199, 42, 24, 1)"></rect><rect width="143.76" height="5.99" x="0" y="5.99" fill="rgba(0, 0, 0, 0)"></rect></pattern><clipPath id="SvgjsClipPath1058"><circle r="35.94" cx="421.16" cy="428.23"></circle></clipPath><pattern x="0" y="0" width="6" height="6" patternUnits="userSpaceOnUse" id="SvgjsPattern1061"><path d="M3 1L3 5M1 3L5 3" stroke="rgba(16, 3, 224, 1)" fill="none" stroke-width="1"></path></pattern><clipPath id="SvgjsClipPath1060"><circle r="69" cx="885.81" cy="503.28"></circle></clipPath><pattern x="0" y="0" width="6" height="6" patternUnits="userSpaceOnUse" id="SvgjsPattern1063"><path d="M3 1L3 5M1 3L5 3" stroke="rgba(16, 3, 224, 1)" fill="none" stroke-width="1.32"></path></pattern><clipPath id="SvgjsClipPath1062"><circle r="66" cx="1397.17" cy="407.75"></circle></clipPath></defs></svg>