<svg xmlns="http://www.w3.org/2000/svg" version="1.1" xmlns:xlink="http://www.w3.org/1999/xlink" xmlns:svgjs="http://svgjs.dev/svgjs" width="1440" height="560" preserveAspectRatio="none" viewBox="0 0 1440 560"><g mask="url(&quot;#SvgjsMask1053&quot;)" fill="none"><path d="M408.782,440.29C443.831,438.897,478.975,426.327,496.326,395.842C513.52,365.634,508.095,328.051,489.314,298.803C472.016,271.865,440.721,261.695,408.782,259.509C371.127,256.932,328.208,255.359,306.59,286.297C282.642,320.569,285.179,368.476,308.297,403.313C329.449,435.186,370.559,441.809,408.782,440.29" fill="rgba(195, 94, 2, 0.4)" class="triangle-float2"></path><path d="M1362.299,169.585C1391.243,167.856,1419.305,155.969,1433.544,130.71C1447.554,105.857,1443.696,75.523,1429.161,50.973C1414.924,26.927,1390.182,12.243,1362.299,10.379C1330.32,8.242,1295.869,14.306,1277.929,40.865C1258.052,70.292,1255.138,110.506,1274.605,140.206C1292.718,167.84,1329.317,171.556,1362.299,169.585" fill="rgba(195, 94, 2, 0.4)" class="triangle-float2"></path><path d="M212.134,248.627C247.981,246.71,276.093,221.805,294.39,190.92C313.134,159.28,323.194,121.689,306.854,88.743C288.737,52.213,252.906,25.661,212.134,25.066C170.432,24.458,132.999,49.586,112.505,85.909C92.367,121.601,91.686,165.665,113.085,200.615C133.619,234.153,172.865,250.727,212.134,248.627" fill="rgba(195, 94, 2, 0.4)" class="triangle-float1"></path><path d="M658.6975113301747 189.37311626371098L611.6718762415267 305.765647445176 728.0644074229916 352.7912825338241 775.0900425116397 236.39875135235908z" fill="rgba(195, 94, 2, 0.4)" class="triangle-float2"></path><path d="M121.36 545.43 a184.1 184.1 0 1 0 368.2 0 a184.1 184.1 0 1 0 -368.2 0z" fill="rgba(195, 94, 2, 0.4)" class="triangle-float2"></path><path d="M-23.53 83.35 a123.03 123.03 0 1 0 246.06 0 a123.03 123.03 0 1 0 -246.06 0z" fill="rgba(195, 94, 2, 0.4)" class="triangle-float3"></path><path d="M-74.47 370.17 a105.9 105.9 0 1 0 211.8 0 a105.9 105.9 0 1 0 -211.8 0z" fill="rgba(195, 94, 2, 0.4)" class="triangle-float1"></path><path d="M839.236,409.349C889.129,409.118,928.679,373.216,954.53,330.541C981.582,285.883,1000.584,231.113,974.66,185.79C948.609,140.246,891.648,126.555,839.236,128.976C791.372,131.186,747.856,155.891,723.873,197.372C699.864,238.898,699.146,289.488,722.075,331.62C746.087,375.741,789.005,409.582,839.236,409.349" fill="rgba(195, 94, 2, 0.4)" class="triangle-float1"></path><path d="M603.6388829164182 56.11153818471855L511.5909493592871-61.93616380800714 460.46163944098635 58.516941925957674z" fill="rgba(195, 94, 2, 0.4)" class="triangle-float3"></path><path d="M1168.514,112.644C1187.838,111.756,1205.357,101.663,1215.011,84.9C1224.646,68.169,1224.805,47.84,1215.613,30.862C1205.942,13,1188.825,-0.754,1168.514,-0.983C1147.853,-1.216,1130.202,12.081,1119.539,29.779C1108.472,48.148,1103.06,71.083,1113.971,89.545C1124.738,107.763,1147.374,113.616,1168.514,112.644" fill="rgba(195, 94, 2, 0.4)" class="triangle-float3"></path><path d="M1296.078,545.24C1316.128,546.284,1337.931,542.514,1348.724,525.585C1360.169,507.634,1358.257,483.832,1346.574,466.035C1335.878,449.741,1315.569,445.447,1296.078,445.384C1276.442,445.32,1254.92,448.754,1245.012,465.707C1235.041,482.767,1241.467,503.927,1252.143,520.555C1261.87,535.705,1278.098,544.304,1296.078,545.24" fill="rgba(195, 94, 2, 0.4)" class="triangle-float2"></path><path d="M13.636773948776874 453.5306131763252L110.52257925265135 468.8758172247713 125.86778330109748 371.9900119208968 28.981977997223 356.6448078724507z" fill="rgba(195, 94, 2, 0.4)" class="triangle-float2"></path><path d="M1232.108,661.363C1271.954,663.45,1318.049,658.889,1337.345,623.964C1356.309,589.64,1333.096,550.119,1311.741,517.229C1292.873,488.17,1266.699,463.848,1232.108,461.882C1193.913,459.711,1154.208,474.054,1135.082,507.187C1115.958,540.316,1124.005,581.48,1144.38,613.855C1163.364,644.021,1196.514,659.498,1232.108,661.363" fill="rgba(195, 94, 2, 0.4)" class="triangle-float1"></path><path d="M113.06 244.55 a138.59 138.59 0 1 0 277.18 0 a138.59 138.59 0 1 0 -277.18 0z" fill="rgba(195, 94, 2, 0.4)" class="triangle-float1"></path></g><defs><mask id="SvgjsMask1053"><rect width="1440" height="560" fill="#ffffff"></rect></mask><style>
                @keyframes float1 {
                    0%{transform: translate(0, 0)}
                    50%{transform: translate(-10px, 0)}
                    100%{transform: translate(0, 0)}
                }

                .triangle-float1 {
                    animation: float1 5s infinite;
                }

                @keyframes float2 {
                    0%{transform: translate(0, 0)}
                    50%{transform: translate(-5px, -5px)}
                    100%{transform: translate(0, 0)}
                }

                .triangle-float2 {
                    animation: float2 4s infinite;
                }

                @keyframes float3 {
                    0%{transform: translate(0, 0)}
                    50%{transform: translate(0, -10px)}
                    100%{transform: translate(0, 0)}
                }

                .triangle-float3 {
                    animation: float3 6s infinite;
                }
            </style></defs></svg>